<svg width="1897" height="324" viewBox="0 0 1897 324" fill="none" xmlns="http://www.w3.org/2000/svg">
<rect x="0.844238" y="24" width="300" height="300" rx="100" fill="url(#paint0_linear_177_2)"/>
<path fill-rule="evenodd" clip-rule="evenodd" d="M133.435 256.72V206.74L88.5974 233.258C79.621 238.566 68.0406 235.593 62.7318 226.617C57.423 217.64 60.3962 206.06 69.3726 200.751L114.061 174.322L69.3726 147.893C60.3962 142.584 57.423 131.003 62.7318 122.027C68.0406 113.051 79.621 110.078 88.5974 115.386L133.434 141.904V91.2802C133.434 80.8515 141.889 72.3973 152.317 72.3973C162.746 72.3973 171.2 80.8515 171.2 91.2802V140.161L213.091 115.386C222.067 110.078 233.648 113.051 238.956 122.027C244.265 131.003 241.292 142.584 232.316 147.893L187.628 174.322L232.316 200.751C241.292 206.06 244.265 217.64 238.956 226.617C233.648 235.593 222.067 238.566 213.091 233.258L171.2 208.483V256.72C171.2 267.149 162.746 275.603 152.317 275.603C141.889 275.603 133.435 267.149 133.435 256.72Z" fill="white" fill-opacity="0.6"/>
<path fill-rule="evenodd" clip-rule="evenodd" d="M114.061 174.322L69.3728 147.893C60.3964 142.584 57.4233 131.003 62.7321 122.027C68.0408 113.051 79.6213 110.078 88.5976 115.386L113.443 130.081L154.542 154.387L154.528 154.412L173.453 165.824C179.917 169.722 179.897 179.103 173.416 182.973L152.317 195.573L112.331 219.221L88.5976 233.257C79.6212 238.566 68.0408 235.593 62.7321 226.617C57.4233 217.64 60.3964 206.06 69.3728 200.751L114.061 174.322Z" fill="white"/>
<path d="M452.892 214.738C459.889 214.738 464.839 214.055 467.74 212.69C470.641 211.325 472.092 208.679 472.092 204.754C472.092 201.682 470.215 199.037 466.46 196.818C462.705 194.429 456.988 191.783 449.308 188.882C443.335 186.663 437.873 184.359 432.924 181.97C428.145 179.581 424.049 176.765 420.636 173.522C417.223 170.109 414.577 166.098 412.7 161.49C410.823 156.882 409.884 151.335 409.884 144.85C409.884 132.221 414.577 122.237 423.964 114.898C433.351 107.559 446.236 103.89 462.62 103.89C470.812 103.89 478.663 104.658 486.172 106.194C493.681 107.559 499.655 109.095 504.092 110.802L497.436 140.498C492.999 138.962 488.135 137.597 482.844 136.402C477.724 135.207 471.921 134.61 465.436 134.61C453.489 134.61 447.516 137.938 447.516 144.594C447.516 146.13 447.772 147.495 448.284 148.69C448.796 149.885 449.82 151.079 451.356 152.274C452.892 153.298 454.94 154.493 457.5 155.858C460.231 157.053 463.644 158.418 467.74 159.954C476.103 163.026 483.015 166.098 488.476 169.17C493.937 172.071 498.204 175.314 501.276 178.898C504.519 182.311 506.737 186.151 507.932 190.418C509.297 194.685 509.98 199.634 509.98 205.266C509.98 218.578 504.945 228.647 494.876 235.474C484.977 242.301 470.897 245.714 452.636 245.714C440.689 245.714 430.705 244.69 422.684 242.642C414.833 240.594 409.372 238.887 406.3 237.522L412.7 206.546C419.185 209.106 425.841 211.154 432.668 212.69C439.495 214.055 446.236 214.738 452.892 214.738ZM624.758 175.826C624.758 164.05 622.113 154.663 616.822 147.666C611.531 140.498 603.681 136.914 593.27 136.914C589.857 136.914 586.699 137.085 583.798 137.426C580.897 137.597 578.507 137.853 576.63 138.194V207.058C579.019 208.594 582.091 209.874 585.846 210.898C589.771 211.922 593.697 212.434 597.622 212.434C615.713 212.434 624.758 200.231 624.758 175.826ZM663.67 174.802C663.67 185.213 662.39 194.685 659.83 203.218C657.27 211.751 653.515 219.09 648.566 225.234C643.617 231.378 637.473 236.157 630.134 239.57C622.795 242.983 614.347 244.69 604.79 244.69C599.499 244.69 594.55 244.178 589.942 243.154C585.334 242.13 580.897 240.679 576.63 238.802V289.49H538.486V112.082C541.899 111.058 545.825 110.119 550.262 109.266C554.699 108.242 559.307 107.389 564.086 106.706C569.035 106.023 573.985 105.511 578.934 105.17C584.054 104.658 588.918 104.402 593.526 104.402C604.619 104.402 614.518 106.109 623.222 109.522C631.926 112.765 639.265 117.458 645.238 123.602C651.211 129.575 655.734 136.914 658.806 145.618C662.049 154.322 663.67 164.05 663.67 174.802ZM744.442 215.506C748.197 215.506 751.781 215.421 755.194 215.25C758.607 215.079 761.338 214.823 763.386 214.482V185.554C761.85 185.213 759.546 184.871 756.474 184.53C753.402 184.189 750.586 184.018 748.026 184.018C744.442 184.018 741.029 184.274 737.786 184.786C734.714 185.127 731.983 185.895 729.594 187.09C727.205 188.285 725.327 189.906 723.962 191.954C722.597 194.002 721.914 196.562 721.914 199.634C721.914 205.607 723.877 209.789 727.802 212.178C731.898 214.397 737.445 215.506 744.442 215.506ZM741.37 103.89C752.634 103.89 762.021 105.17 769.53 107.73C777.039 110.29 783.013 113.959 787.45 118.738C792.058 123.517 795.301 129.319 797.178 136.146C799.055 142.973 799.994 150.567 799.994 158.93V238.29C794.533 239.485 786.938 240.85 777.21 242.386C767.482 244.093 755.706 244.946 741.882 244.946C733.178 244.946 725.242 244.178 718.074 242.642C711.077 241.106 705.018 238.631 699.898 235.218C694.778 231.634 690.853 227.026 688.122 221.394C685.391 215.762 684.026 208.85 684.026 200.658C684.026 192.807 685.562 186.151 688.634 180.69C691.877 175.229 696.143 170.877 701.434 167.634C706.725 164.391 712.783 162.087 719.61 160.722C726.437 159.186 733.519 158.418 740.858 158.418C745.807 158.418 750.159 158.674 753.914 159.186C757.839 159.527 760.997 160.039 763.386 160.722V157.138C763.386 150.653 761.423 145.447 757.498 141.522C753.573 137.597 746.746 135.634 737.018 135.634C730.533 135.634 724.133 136.146 717.818 137.17C711.503 138.023 706.042 139.303 701.434 141.01L696.57 110.29C698.789 109.607 701.519 108.925 704.762 108.242C708.175 107.389 711.845 106.706 715.77 106.194C719.695 105.511 723.791 104.999 728.058 104.658C732.495 104.146 736.933 103.89 741.37 103.89ZM915.638 141.266C912.225 140.413 908.214 139.559 903.606 138.706C898.998 137.682 894.049 137.17 888.758 137.17C886.369 137.17 883.467 137.426 880.054 137.938C876.811 138.279 874.337 138.706 872.63 139.218V242.13H834.486V114.642C841.313 112.253 849.334 110.034 858.55 107.986C867.937 105.767 878.347 104.658 889.782 104.658C891.83 104.658 894.305 104.829 897.206 105.17C900.107 105.341 903.009 105.682 905.91 106.194C908.811 106.535 911.713 107.047 914.614 107.73C917.515 108.242 919.99 108.925 922.038 109.778L915.638 141.266ZM980.63 156.114C984.385 152.018 988.225 147.751 992.15 143.314C996.246 138.877 1000.17 134.525 1003.93 130.258C1007.68 125.821 1011.18 121.639 1014.42 117.714C1017.84 113.789 1020.74 110.375 1023.13 107.474H1068.44C1059.39 117.885 1050.52 127.869 1041.81 137.426C1033.28 146.813 1023.89 156.541 1013.65 166.61C1018.77 171.218 1024.06 176.765 1029.53 183.25C1034.99 189.565 1040.28 196.135 1045.4 202.962C1050.52 209.789 1055.21 216.615 1059.48 223.442C1063.74 230.269 1067.33 236.498 1070.23 242.13H1026.45C1023.72 237.693 1020.57 232.829 1016.98 227.538C1013.57 222.077 1009.9 216.701 1005.97 211.41C1002.05 205.949 997.867 200.743 993.43 195.794C989.163 190.845 984.897 186.663 980.63 183.25V242.13H942.486V49.618L980.63 43.474V156.114ZM1111.47 218.322C1113.01 219.517 1114.89 220.797 1117.1 222.162C1119.49 223.527 1122.22 224.807 1125.3 226.002C1128.37 227.197 1131.7 228.221 1135.28 229.074C1138.86 229.757 1142.62 230.098 1146.54 230.098C1154.74 230.098 1161.56 228.733 1167.02 226.002C1172.66 223.101 1177.18 219.261 1180.59 214.482C1184.01 209.533 1186.48 203.815 1188.02 197.33C1189.55 190.674 1190.32 183.677 1190.32 176.338C1190.32 158.93 1185.97 145.618 1177.26 136.402C1168.56 127.015 1157.04 122.322 1142.7 122.322C1134.51 122.322 1127.86 122.749 1122.74 123.602C1117.79 124.285 1114.03 125.053 1111.47 125.906V218.322ZM1111.47 289.49H1094.83V114.386C1099.78 112.679 1106.1 111.058 1113.78 109.522C1121.46 107.986 1131.18 107.218 1142.96 107.218C1152.69 107.218 1161.48 108.839 1169.33 112.082C1177.35 115.154 1184.18 119.677 1189.81 125.65C1195.61 131.623 1200.05 138.877 1203.12 147.41C1206.36 155.943 1207.98 165.586 1207.98 176.338C1207.98 186.407 1206.62 195.709 1203.89 204.242C1201.33 212.605 1197.49 219.858 1192.37 226.002C1187.25 231.975 1180.93 236.669 1173.42 240.082C1166.09 243.495 1157.64 245.202 1148.08 245.202C1139.38 245.202 1131.78 244.007 1125.3 241.618C1118.98 239.058 1114.37 236.669 1111.47 234.45V289.49ZM1277.62 244.434C1271.99 244.263 1267.04 243.495 1262.77 242.13C1258.67 240.935 1255.18 239.058 1252.27 236.498C1249.54 233.767 1247.41 230.354 1245.87 226.258C1244.51 221.991 1243.83 216.701 1243.83 210.386V46.546L1260.47 43.474V209.874C1260.47 213.97 1260.81 217.298 1261.49 219.858C1262.34 222.247 1263.54 224.21 1265.07 225.746C1266.61 227.111 1268.57 228.135 1270.96 228.818C1273.52 229.501 1276.51 230.098 1279.92 230.61L1277.62 244.434ZM1410.96 237.522C1406.01 238.887 1399.36 240.423 1391 242.13C1382.63 243.837 1372.39 244.69 1360.28 244.69C1350.38 244.69 1342.1 243.239 1335.44 240.338C1328.79 237.437 1323.41 233.341 1319.32 228.05C1315.22 222.759 1312.23 216.359 1310.36 208.85C1308.65 201.341 1307.8 193.063 1307.8 184.018V109.778H1324.44V178.642C1324.44 188.029 1325.12 195.965 1326.48 202.45C1327.85 208.935 1330.07 214.226 1333.14 218.322C1336.21 222.247 1340.14 225.149 1344.92 227.026C1349.87 228.733 1355.84 229.586 1362.84 229.586C1370.69 229.586 1377.51 229.159 1383.32 228.306C1389.12 227.453 1392.79 226.685 1394.32 226.002V109.778H1410.96V237.522ZM1541.35 226.77C1540.33 227.623 1538.79 228.647 1536.75 229.842C1534.7 230.866 1532.14 231.975 1529.07 233.17C1526.16 234.365 1522.75 235.389 1518.83 236.242C1515.07 236.925 1510.8 237.266 1506.03 237.266C1498.35 237.266 1490.92 236.071 1483.75 233.682C1476.59 231.293 1470.27 227.538 1464.81 222.418C1459.52 217.298 1455.25 210.727 1452.01 202.706C1448.77 194.514 1447.15 184.615 1447.15 173.01C1447.15 163.623 1448.6 154.919 1451.5 146.898C1454.4 138.877 1458.5 131.965 1463.79 126.162C1469.25 120.189 1475.82 115.581 1483.5 112.338C1491.35 108.925 1500.14 107.218 1509.87 107.218C1522.15 107.218 1531.97 108.071 1539.31 109.778C1546.82 111.314 1552.96 112.85 1557.74 114.386V235.218C1557.74 255.015 1552.62 269.095 1542.38 277.458C1532.14 285.991 1516.69 290.258 1496.04 290.258C1487.51 290.258 1479.74 289.575 1472.75 288.21C1465.92 287.015 1460.03 285.565 1455.08 283.858L1458.41 268.754C1462.51 270.631 1468.05 272.253 1475.05 273.618C1482.22 274.983 1489.39 275.666 1496.55 275.666C1512.26 275.666 1523.6 272.594 1530.6 266.45C1537.77 260.477 1541.35 250.151 1541.35 235.474V226.77ZM1541.1 125.906C1538.2 125.053 1534.44 124.285 1529.83 123.602C1525.23 122.749 1518.66 122.322 1510.12 122.322C1502.95 122.322 1496.55 123.602 1490.92 126.162C1485.46 128.551 1480.77 132.05 1476.84 136.658C1472.92 141.095 1469.93 146.471 1467.88 152.786C1465.83 158.93 1464.81 165.757 1464.81 173.266C1464.81 181.97 1466 189.479 1468.39 195.794C1470.78 201.938 1473.86 206.973 1477.61 210.898C1481.54 214.823 1485.97 217.725 1490.92 219.602C1495.87 221.309 1500.91 222.162 1506.03 222.162C1513.54 222.162 1520.36 221.053 1526.51 218.834C1532.82 216.615 1537.68 214.055 1541.1 211.154V125.906ZM1618.47 242.13H1601.83V109.778H1618.47V242.13ZM1622.31 69.842C1622.31 73.7673 1621.12 76.9247 1618.73 79.314C1616.34 81.5327 1613.44 82.642 1610.02 82.642C1606.61 82.642 1603.71 81.5327 1601.32 79.314C1598.93 76.9247 1597.74 73.7673 1597.74 69.842C1597.74 65.9167 1598.93 62.8447 1601.32 60.626C1603.71 58.2367 1606.61 57.042 1610.02 57.042C1613.44 57.042 1616.34 58.2367 1618.73 60.626C1621.12 62.8447 1622.31 65.9167 1622.31 69.842ZM1662.58 114.386C1667.53 113.021 1674.19 111.485 1682.55 109.778C1690.91 108.071 1701.15 107.218 1713.27 107.218C1723.34 107.218 1731.7 108.669 1738.36 111.57C1745.18 114.471 1750.56 118.653 1754.49 124.114C1758.58 129.405 1761.48 135.805 1763.19 143.314C1764.9 150.823 1765.75 159.101 1765.75 168.146V242.13H1749.11V173.522C1749.11 164.135 1748.43 156.199 1747.06 149.714C1745.87 143.229 1743.73 137.938 1740.66 133.842C1737.76 129.746 1733.84 126.845 1728.89 125.138C1724.11 123.261 1718.05 122.322 1710.71 122.322C1702.86 122.322 1696.03 122.749 1690.23 123.602C1684.6 124.455 1680.93 125.223 1679.22 125.906V242.13H1662.58V114.386ZM1835.47 230.354C1845.03 230.354 1852.88 228.818 1859.02 225.746C1865.33 222.503 1868.49 217.127 1868.49 209.618C1868.49 206.034 1867.89 202.962 1866.7 200.402C1865.68 197.842 1863.88 195.538 1861.32 193.49C1858.76 191.442 1855.35 189.479 1851.08 187.602C1846.99 185.725 1841.87 183.506 1835.72 180.946C1830.77 178.898 1826.08 176.85 1821.64 174.802C1817.21 172.583 1813.28 170.109 1809.87 167.378C1806.45 164.477 1803.72 161.063 1801.68 157.138C1799.63 153.213 1798.6 148.434 1798.6 142.802C1798.6 132.05 1802.61 123.346 1810.64 116.69C1818.83 110.034 1830.01 106.706 1844.17 106.706C1853.22 106.706 1860.64 107.474 1866.44 109.01C1872.42 110.546 1876.6 111.911 1878.99 113.106L1875.15 127.954C1873.1 126.93 1869.6 125.565 1864.65 123.858C1859.87 122.151 1852.79 121.298 1843.4 121.298C1839.65 121.298 1836.07 121.725 1832.65 122.578C1829.41 123.261 1826.51 124.455 1823.95 126.162C1821.39 127.698 1819.34 129.746 1817.8 132.306C1816.27 134.695 1815.5 137.682 1815.5 141.266C1815.5 144.85 1816.18 147.922 1817.55 150.482C1818.91 153.042 1820.88 155.346 1823.44 157.394C1826.17 159.271 1829.41 161.063 1833.16 162.77C1837.09 164.477 1841.53 166.354 1846.48 168.402C1851.6 170.45 1856.46 172.583 1861.07 174.802C1865.85 176.85 1870.03 179.41 1873.61 182.482C1877.2 185.383 1880.1 188.967 1882.32 193.234C1884.53 197.33 1885.64 202.535 1885.64 208.85C1885.64 220.797 1881.12 229.842 1872.08 235.986C1863.2 242.13 1851 245.202 1835.47 245.202C1823.86 245.202 1814.99 244.178 1808.84 242.13C1802.7 240.253 1798.6 238.802 1796.56 237.778L1800.91 222.674C1801.42 223.015 1802.53 223.613 1804.24 224.466C1805.94 225.149 1808.25 226.002 1811.15 227.026C1814.05 227.879 1817.46 228.647 1821.39 229.33C1825.48 230.013 1830.18 230.354 1835.47 230.354Z" fill="#00004B"/>
<defs>
<linearGradient id="paint0_linear_177_2" x1="300.844" y1="324" x2="17.9807" y2="8.62988" gradientUnits="userSpaceOnUse">
<stop stop-color="#FF16FF"/>
<stop offset="0.475613" stop-color="#0D3AFF"/>
<stop offset="1" stop-color="#5AF7DC"/>
</linearGradient>
</defs>
</svg>
