<svg width="21" height="21" viewBox="0 0 21 21" fill="none" xmlns="http://www.w3.org/2000/svg">
<path fill-rule="evenodd" clip-rule="evenodd" d="M0.922119 6.42212C0.922119 3.10841 3.60841 0.422119 6.92212 0.422119H14.9221C18.2358 0.422119 20.9221 3.10841 20.9221 6.42212V14.4221C20.9221 17.7358 18.2358 20.4221 14.9221 20.4221H6.92212C3.60841 20.4221 0.922119 17.7358 0.922119 14.4221V6.42212ZM4.87315 13.3361C4.87128 13.2848 4.87256 13.2337 4.8769 13.1829C4.9104 12.7911 5.12636 12.4209 5.49054 12.2055L8.46967 10.4436L5.49054 8.68171C5.09431 8.44737 4.87353 8.02972 4.87232 7.60054C4.87169 7.38151 4.92823 7.15947 5.04783 6.95726C5.40175 6.35883 6.17377 6.16062 6.7722 6.51454L9.76137 8.28239V4.90754C9.76137 4.21229 10.325 3.64868 11.0202 3.64868C11.7155 3.64868 12.2791 4.21229 12.2791 4.90754V8.16626L15.0719 6.51454C15.6703 6.16062 16.4424 6.35883 16.7963 6.95726C17.1502 7.55568 16.952 8.32771 16.3536 8.68163L13.3744 10.4436L16.3536 12.2055C16.952 12.5595 17.1502 13.3315 16.7963 13.9299C16.4424 14.5283 15.6703 14.7265 15.0719 14.3726L12.2791 12.7209V15.9368C12.2791 16.632 11.7155 17.1956 11.0203 17.1956C10.325 17.1956 9.76141 16.632 9.76141 15.9368V12.6048L8.35442 13.4369L6.7722 14.3727C6.17377 14.7266 5.40175 14.5284 5.04783 13.93C4.93721 13.743 4.88053 13.539 4.87315 13.3361Z" fill="#E5E7EB"/>
</svg>
