<svg width="301" height="301" viewBox="0 0 301 301" fill="none" xmlns="http://www.w3.org/2000/svg">
<rect x="0.922119" y="0.422119" width="300" height="300" rx="100" fill="url(#paint0_linear_55_80)"/>
<path fill-rule="evenodd" clip-rule="evenodd" d="M133.512 233.142V183.162L88.6752 209.68C79.6989 214.988 68.1185 212.015 62.8097 203.039C57.5009 194.063 60.4741 182.482 69.4504 177.173L114.139 150.744L69.4504 124.315C60.4741 119.006 57.5009 107.425 62.8097 98.4491C68.1185 89.4728 79.6989 86.4996 88.6752 91.8084L133.512 118.326V67.7022C133.512 57.2735 141.966 48.8193 152.395 48.8193C162.824 48.8193 171.278 57.2735 171.278 67.7022V116.583L213.169 91.8084C222.145 86.4996 233.725 89.4728 239.034 98.4491C244.343 107.425 241.37 119.006 232.394 124.315L187.705 150.744L232.394 177.173C241.37 182.482 244.343 194.063 239.034 203.039C233.725 212.015 222.145 214.988 213.169 209.68L171.278 184.905V233.142C171.278 243.571 162.824 252.025 152.395 252.025C141.967 252.025 133.512 243.571 133.512 233.142Z" fill="white" fill-opacity="0.6"/>
<path fill-rule="evenodd" clip-rule="evenodd" d="M114.139 150.744L69.4507 124.315C60.4743 119.006 57.5012 107.426 62.8099 98.4492C68.1187 89.4729 79.6991 86.4997 88.6755 91.8085L113.521 106.503L154.62 130.809L154.606 130.834L173.531 142.246C179.995 146.144 179.975 155.525 173.494 159.395L152.395 171.995L112.409 195.643L88.6755 209.68C79.6991 214.989 68.1187 212.015 62.8099 203.039C57.5012 194.063 60.4743 182.482 69.4507 177.173L114.139 150.744Z" fill="white"/>
<defs>
<linearGradient id="paint0_linear_55_80" x1="300.922" y1="300.422" x2="18.0586" y2="-14.948" gradientUnits="userSpaceOnUse">
<stop stop-color="#FF16FF"/>
<stop offset="0.475613" stop-color="#0D3AFF"/>
<stop offset="1" stop-color="#5AF7DC"/>
</linearGradient>
</defs>
</svg>
